<!DOCTYPE svg PUBLIC "-//W3C//DTD SVG 1.1//EN" "http://www.w3.org/Graphics/SVG/1.1/DTD/svg11.dtd">
<!-- Uploaded to: SVG Repo, www.svgrepo.com, Transformed by: SVG Repo Mixer Tools -->
<svg height="800px" width="800px" version="1.1" id="Layer_1" xmlns="http://www.w3.org/2000/svg" xmlns:xlink="http://www.w3.org/1999/xlink" viewBox="0 0 512 512" xml:space="preserve" fill="#000000">
<g id="SVGRepo_bgCarrier" stroke-width="0"/>
<g id="SVGRepo_tracerCarrier" stroke-linecap="round" stroke-linejoin="round"/>
<g id="SVGRepo_iconCarrier"> <g transform="translate(1 1)"> <path style="fill:#00DA6C;" d="M367.814,389.508c0,62.481-50.332,112.814-112.814,112.814S142.186,451.99,142.186,389.508 S192.519,276.695,255,276.695S367.814,327.027,367.814,389.508z"/> <g> <polygon style="fill:#ffffff;" points="20.695,77.102 489.305,77.102 489.305,7.678 20.695,7.678 "/> <path style="fill:#ffffff;" d="M20.695,7.678v381.831h121.492c0-62.481,50.332-112.814,112.814-112.814 s112.814,50.332,112.814,112.814h121.492V7.678H20.695z"/> </g> <polygon style="fill:#f3d08c;" points="463.271,389.508 489.305,389.508 489.305,7.678 463.271,7.678 "/> <polygon style="fill:#FFFFFF;" points="20.695,389.508 46.729,389.508 46.729,7.678 20.695,7.678 "/> <path d="M489.305,85.78H20.695c-5.207,0-8.678-3.471-8.678-8.678V7.678C12.017,2.471,15.488-1,20.695-1h468.61 c5.207,0,8.678,3.471,8.678,8.678v69.424C497.983,82.308,494.512,85.78,489.305,85.78z M29.373,68.424h451.254V16.356H29.373 V68.424z"/> <path d="M64.085,51.068h-8.678c-5.207,0-8.678-3.471-8.678-8.678s3.471-8.678,8.678-8.678h8.678c5.207,0,8.678,3.471,8.678,8.678 S69.292,51.068,64.085,51.068z"/> <path d="M107.475,51.068h-8.678c-5.207,0-8.678-3.471-8.678-8.678s3.471-8.678,8.678-8.678h8.678c5.207,0,8.678,3.471,8.678,8.678 S112.681,51.068,107.475,51.068z"/> <path d="M150.864,51.068h-8.678c-5.207,0-8.678-3.471-8.678-8.678s3.471-8.678,8.678-8.678h8.678c5.207,0,8.678,3.471,8.678,8.678 S156.071,51.068,150.864,51.068z"/> <path d="M367.814,146.525H142.186c-5.207,0-8.678-3.471-8.678-8.678s3.471-8.678,8.678-8.678h225.627 c5.207,0,8.678,3.471,8.678,8.678S373.02,146.525,367.814,146.525z"/> <path d="M385.169,189.915H124.831c-5.207,0-8.678-3.471-8.678-8.678s3.471-8.678,8.678-8.678h260.339 c5.207,0,8.678,3.471,8.678,8.678S390.376,189.915,385.169,189.915z"/> <path d="M402.525,233.305H107.475c-5.207,0-8.678-3.471-8.678-8.678s3.471-8.678,8.678-8.678h295.051 c5.207,0,8.678,3.471,8.678,8.678S407.732,233.305,402.525,233.305z"/> <path d="M255,511c-66.82,0-121.492-54.671-121.492-121.492S188.18,268.017,255,268.017s121.492,54.671,121.492,121.492 S321.82,511,255,511z M255,285.373c-57.275,0-104.136,46.861-104.136,104.136S197.725,493.644,255,493.644 s104.136-46.861,104.136-104.136S312.275,285.373,255,285.373z"/> <path d="M255,398.186c-5.207,0-8.678-3.471-8.678-8.678V276.695c0-5.207,3.471-8.678,8.678-8.678s8.678,3.471,8.678,8.678v112.814 C263.678,394.715,260.207,398.186,255,398.186z"/> <path d="M367.814,398.186H255c-5.207,0-8.678-3.471-8.678-8.678c0-5.207,3.471-8.678,8.678-8.678h112.814 c5.207,0,8.678,3.471,8.678,8.678C376.492,394.715,373.02,398.186,367.814,398.186z"/> <path d="M489.305,398.186H367.814c-5.207,0-8.678-3.471-8.678-8.678c0-57.275-46.861-104.136-104.136-104.136 s-104.136,46.861-104.136,104.136c0,5.207-3.471,8.678-8.678,8.678H20.695c-5.207,0-8.678-3.471-8.678-8.678V7.678 C12.017,2.471,15.488-1,20.695-1h468.61c5.207,0,8.678,3.471,8.678,8.678v381.831C497.983,394.715,494.512,398.186,489.305,398.186 z M376.492,380.831h104.136V16.356H29.373v364.475h104.136c4.339-63.349,57.275-112.814,121.492-112.814 S372.153,317.481,376.492,380.831z"/> </g> </g>
</svg>