<!DOCTYPE svg PUBLIC "-//W3C//DTD SVG 1.1//EN" "http://www.w3.org/Graphics/SVG/1.1/DTD/svg11.dtd">
<!-- Uploaded to: SVG Repo, www.svgrepo.com, Transformed by: SVG Repo Mixer Tools -->
<svg width="800px" height="800px" viewBox="0 0 1024 1024" xmlns="http://www.w3.org/2000/svg" fill="#000000" stroke="#000000">
<g id="SVGRepo_bgCarrier" stroke-width="0"/>
<g id="SVGRepo_tracerCarrier" stroke-linecap="round" stroke-linejoin="round"/>
<g id="SVGRepo_iconCarrier">
<path fill="#fb4b4b" d="M352 192V95.936a32 32 0 0 1 32-32h256a32 32 0 0 1 32 32V192h256a32 32 0 1 1 0 64H96a32 32 0 0 1 0-64h256zm64 0h192v-64H416v64zM192 960a32 32 0 0 1-32-32V256h704v672a32 32 0 0 1-32 32H192zm224-192a32 32 0 0 0 32-32V416a32 32 0 0 0-64 0v320a32 32 0 0 0 32 32zm192 0a32 32 0 0 0 32-32V416a32 32 0 0 0-64 0v320a32 32 0 0 0 32 32z"/>
</g>
</svg>