<?xml version="1.0" encoding="iso-8859-1"?>
<!-- Uploaded to: SVG Repo, www.svgrepo.com, Generator: SVG Repo Mixer Tools -->
<svg height="800px" width="800px" version="1.1" id="Layer_1" xmlns="http://www.w3.org/2000/svg" xmlns:xlink="http://www.w3.org/1999/xlink" 
	 viewBox="0 0 512 512" xml:space="preserve">
<path style="fill:#ECF1F1;" d="M494.345,397.241H17.655V70.621c0-14.627,11.855-26.483,26.483-26.483h423.724
	c14.627,0,26.483,11.855,26.483,26.483V397.241z"/>
<path style="fill:#BDC3C7;" d="M467.774,467.862H44.226C19.8,467.862,0,448.062,0,423.636v-26.395h512v26.395
	C512,448.062,492.2,467.862,467.774,467.862"/>
<polygon style="fill:#485762;" points="52.966,361.931 459.034,361.931 459.034,79.448 52.966,79.448 "/>
<g>
	<path style="fill:#ECF1F1;" d="M141.241,441.379H52.966c-4.873,0-8.828-3.946-8.828-8.828c0-4.882,3.955-8.828,8.828-8.828h88.276
		c4.873,0,8.828,3.946,8.828,8.828C150.069,437.433,146.114,441.379,141.241,441.379"/>
	<path style="fill:#ECF1F1;" d="M459.034,441.379h-88.276c-4.873,0-8.828-3.946-8.828-8.828c0-4.882,3.955-8.828,8.828-8.828h88.276
		c4.873,0,8.828,3.946,8.828,8.828C467.862,437.433,463.907,441.379,459.034,441.379"/>
</g>
<path style="fill:#8697CB;" d="M373.654,248.143c-11.732,5.041-24.647,7.857-38.206,7.857c-13.568,0-26.474-2.816-38.215-7.857
	C272.658,261.65,256,287.77,256,317.793v44.138h158.897v-44.138C414.897,287.77,398.23,261.65,373.654,248.143"/>
<polygon style="fill:#F0C419;" points="361.931,282.483 335.448,335.448 308.966,282.483 335.448,256 "/>
<path style="fill:#FDC693;" d="M388.414,176.552c0,29.255-23.711,52.966-52.966,52.966s-52.966-23.711-52.966-52.966
	s23.711-52.966,52.966-52.966S388.414,147.297,388.414,176.552"/>
<path style="fill:#8697CB;" d="M211.862,176.552c0,34.127-27.666,61.793-61.793,61.793s-61.793-27.666-61.793-61.793
	s27.666-61.793,61.793-61.793S211.862,142.424,211.862,176.552"/>
<path style="fill:#556080;" d="M150.069,123.586c-29.21,0-52.966,23.755-52.966,52.966s23.755,52.966,52.966,52.966
	s52.966-23.755,52.966-52.966S179.279,123.586,150.069,123.586 M150.069,247.172c-38.938,0-70.621-31.682-70.621-70.621
	s31.682-70.621,70.621-70.621s70.621,31.682,70.621,70.621S189.007,247.172,150.069,247.172"/>
<path style="fill:#8697CB;" d="M176.552,176.552c0,34.127-11.855,61.793-26.483,61.793s-26.483-27.666-26.483-61.793
	s11.855-61.793,26.483-61.793S176.552,142.424,176.552,176.552"/>
<path style="fill:#556080;" d="M150.069,123.586c-6.223,0-17.655,20.109-17.655,52.966s11.432,52.966,17.655,52.966
	s17.655-20.109,17.655-52.966S156.292,123.586,150.069,123.586 M150.069,247.172c-23.181,0-35.31-35.522-35.31-70.621
	s12.129-70.621,35.31-70.621s35.31,35.522,35.31,70.621S173.25,247.172,150.069,247.172"/>
<g transform="translate(10 15)">
	<path style="fill:#8697CB;" d="M78.276,161.552h123.586"/>
	<path style="fill:#556080;" d="M201.862,170.379H78.276c-4.873,0-8.828-3.955-8.828-8.828c0-4.873,3.955-8.828,8.828-8.828h123.586
		c4.873,0,8.828,3.955,8.828,8.828C210.69,166.425,206.735,170.379,201.862,170.379z"/>
</g>
<path style="fill:#ECF1F1;" d="M264.828,441.379h-17.655c-4.873,0-8.828-3.946-8.828-8.828c0-4.882,3.955-8.828,8.828-8.828h17.655
	c4.873,0,8.828,3.946,8.828,8.828C273.655,437.433,269.7,441.379,264.828,441.379"/>
<path style="fill:#F0C419;" d="M211.862,282.483h-35.31c-4.873,0-8.828-3.946-8.828-8.828s3.955-8.828,8.828-8.828h35.31
	c4.873,0,8.828,3.946,8.828,8.828S216.735,282.483,211.862,282.483"/>
<path style="fill:#E64C3C;" d="M141.241,282.483H88.276c-4.873,0-8.828-3.946-8.828-8.828s3.955-8.828,8.828-8.828h52.966
	c4.873,0,8.828,3.946,8.828,8.828S146.114,282.483,141.241,282.483"/>
<path style="fill:#4FBA6F;" d="M123.586,317.793h-35.31c-4.873,0-8.828-3.946-8.828-8.828c0-4.882,3.955-8.828,8.828-8.828h35.31
	c4.873,0,8.828,3.946,8.828,8.828C132.414,313.847,128.459,317.793,123.586,317.793"/>
<path style="fill:#8697CB;" d="M211.862,317.793h-52.966c-4.873,0-8.828-3.946-8.828-8.828c0-4.882,3.955-8.828,8.828-8.828h52.966
	c4.873,0,8.828,3.946,8.828,8.828C220.69,313.847,216.735,317.793,211.862,317.793"/>
</svg>