<!DOCTYPE svg PUBLIC "-//W3C//DTD SVG 1.1//EN" "http://www.w3.org/Graphics/SVG/1.1/DTD/svg11.dtd">
<!-- Uploaded to: SVG Repo, www.svgrepo.com, Transformed by: SVG Repo Mixer Tools -->
<svg version="1.1" id="Layer_1" xmlns="http://www.w3.org/2000/svg" xmlns:xlink="http://www.w3.org/1999/xlink" viewBox="0 0 512 512" xml:space="preserve" width="800px" height="800px" fill="#000000">
<g id="SVGRepo_bgCarrier" stroke-width="0"/>
<g id="SVGRepo_tracerCarrier" stroke-linecap="round" stroke-linejoin="round"/>
<g id="SVGRepo_iconCarrier"> <polyline style="fill:#EAB308;" points="403.41,164.301 403.41,31.468 326.996,31.468 326.996,87.887 "/> <polygon style="fill:#CFDCE5;" points="421.384,182.245 420.356,183.272 420.356,512 91.652,512 91.652,183.272 90.637,182.245 256.004,16.901 "/> <polygon style="fill:#BAC6CC;" points="420.356,184.657 420.356,218.442 256.004,54.078 91.652,218.43 91.652,184.645 256.004,20.305 "/> <polygon style="fill:#1D4ED8;" points="488.44,266.218 256.001,33.778 23.561,266.218 6.67,249.329 256.001,0 505.33,249.329 "/> <path style="fill:#BAC6CC;" d="M245.252,146.066c-49.609,0-89.828,40.219-89.828,89.828c0,34.91,19.909,65.165,48.996,80.028v147.22 l25.388,16.103h22.946h0.004l33.322-33.322l-12.657-20.823l12.657-20.823l-19.97-28.136l19.97-28.135V315.92 c29.088-14.862,48.996-45.117,48.996-80.028C335.08,186.285,294.861,146.066,245.252,146.066z M245.252,232.257 c-13.192,0-23.885-10.693-23.885-23.885c0-13.192,10.693-23.885,23.885-23.885c13.192,0,23.885,10.693,23.885,23.885 C269.137,221.563,258.444,232.257,245.252,232.257z"/> <path style="fill:#EAB308;" d="M256.001,140.095c-49.609,0-89.828,40.219-89.828,89.828c0,34.91,19.909,65.165,48.996,80.028v147.22 l25.389,16.103h22.946h0.004l33.322-33.322l-12.657-20.823l12.657-20.823l-19.97-28.136l19.97-28.135v-32.085 c29.088-14.862,48.996-45.117,48.996-80.028C345.828,180.313,305.61,140.095,256.001,140.095z M256.001,226.286 c-13.192,0-23.885-10.693-23.885-23.885c0-13.192,10.693-23.885,23.885-23.885c13.192,0,23.885,10.693,23.885,23.885 C279.886,215.591,269.191,226.286,256.001,226.286z"/> <rect x="240.558" y="312.797" style="fill:#EAB308;" width="15.769" height="160.483"/> </g>
</svg>